<svg width="16" height="16" viewBox="0 0 16 16" fill="none" xmlns="http://www.w3.org/2000/svg">
<path d="M10.6944 1.27039C10.0103 0.531758 9.05471 0.125 8.00002 0.125C6.93971 0.125 5.98099 0.529297 5.30002 1.26336C4.61166 2.00551 4.27627 3.01414 4.35502 4.10328C4.51111 6.25203 6.14623 8 8.00002 8C9.85381 8 11.4861 6.25238 11.6447 4.10398C11.7245 3.02469 11.387 2.01816 10.6944 1.27039ZM14.1875 15.875H1.81252C1.65054 15.8771 1.49013 15.8431 1.34296 15.7754C1.19579 15.7077 1.06555 15.6081 0.961737 15.4837C0.733221 15.2105 0.641112 14.8375 0.709315 14.4603C1.00603 12.8143 1.93205 11.4316 3.38752 10.4609C4.68056 9.59926 6.31849 9.125 8.00002 9.125C9.68154 9.125 11.3195 9.59961 12.6125 10.4609C14.068 11.4312 14.994 12.8139 15.2907 14.46C15.3589 14.8372 15.2668 15.2102 15.0383 15.4834C14.9345 15.6078 14.8043 15.7075 14.6571 15.7752C14.51 15.843 14.3495 15.8771 14.1875 15.875Z" fill="#272727"/>
</svg>
